<svg width="37" height="37" viewBox="0 0 37 37" fill="none" xmlns="http://www.w3.org/2000/svg">
<path fill-rule="evenodd" clip-rule="evenodd" d="M22.743 0.624731C23.127 0.71622 23.5064 0.819764 23.8807 0.93494C31.3875 3.24514 36.8437 10.2354 36.8437 18.5L36.8438 18.5C36.8437 26.8472 31.2779 33.8945 23.6549 36.1329L17.439 25.8849L12.9597 18.5L0.09375 18.5C0.0937526 8.35176 8.32052 0.125 18.4687 0.125C19.9403 0.125 21.3715 0.297986 22.743 0.624731ZM17.439 25.8849L8.6857 34.057C11.5185 35.8422 14.873 36.875 18.4687 36.875C20.2697 36.875 22.0102 36.6159 23.6549 36.1329L17.439 25.8849Z" fill="#F2CCC7"/>
<path fill-rule="evenodd" clip-rule="evenodd" d="M0.09375 18.5H12.9598L23.6549 36.1329C23.6549 36.1329 23.6549 36.1329 23.6548 36.133L17.439 25.885L8.68574 34.057C3.52351 30.804 0.09375 25.0525 0.09375 18.5Z" fill="white"/>
<ellipse cx="18.4688" cy="18.4998" rx="10.7476" ry="10.7476" fill="white"/>
</svg>
