<svg width="24" height="25" viewBox="0 0 24 25" fill="none" xmlns="http://www.w3.org/2000/svg">
<path fill-rule="evenodd" clip-rule="evenodd" d="M14.7914 0.826355C15.0422 0.886103 15.2899 0.953723 15.5343 1.02894C20.4367 2.53764 24 7.1027 24 12.5L24 12.5C24 17.9513 20.3651 22.5535 15.3869 24.0154L11.3275 17.3228L8.40228 12.5L0 12.5C1.72741e-06 5.87258 5.37258 0.5 12 0.5C12.961 0.5 13.8957 0.61297 14.7914 0.826355ZM11.3275 17.3228L5.61107 22.6597C7.46106 23.8255 9.65176 24.5 12 24.5C13.1761 24.5 14.3128 24.3308 15.3869 24.0154L11.3275 17.3228Z" fill="#555BE9"/>
<path fill-rule="evenodd" clip-rule="evenodd" d="M0 12.5H8.40229L15.3869 24.0154C14.9841 24.1337 14.5725 24.2314 14.1534 24.3073C14.5725 24.2314 14.9841 24.1337 15.3869 24.0154L11.3275 17.3228L5.61106 22.6597C2.23983 20.5352 0 16.7792 0 12.5ZM11.3825 24.4844C11.587 24.4947 11.7929 24.5 12 24.5L11.3825 24.4844Z" fill="white"/>
<ellipse cx="12" cy="12.5001" rx="7.01886" ry="7.01887" fill="white"/>
</svg>
